<?xml version="1.0" encoding="utf-8"?>
<!-- Generator: Adobe Illustrator 16.0.0, SVG Export Plug-In . SVG Version: 6.00 Build 0)  -->
<!DOCTYPE svg PUBLIC "-//W3C//DTD SVG 1.1//EN" "http://www.w3.org/Graphics/SVG/1.1/DTD/svg11.dtd">
<svg version="1.1" id="Layer_1" xmlns="http://www.w3.org/2000/svg" xmlns:xlink="http://www.w3.org/1999/xlink" x="0px" y="0px"
	 width="450.762px" height="180.629px" viewBox="0 0 450.762 180.629" enable-background="new 0 0 450.762 180.629"
	 xml:space="preserve">
<g>
	<g>
		<path fill="#FFFFFF" d="M47.059,71.68l7.896,38.961l-6.01,1.217l-7.897-38.96l-5.759,1.167L34.2,68.694l17.528-3.553l1.089,5.372
			L47.059,71.68z"/>
		<path fill="#FFFFFF" d="M80.439,105.989l-3.456-20.246l-7.43,1.269l3.456,20.245l-6.045,1.032L59.354,63.7l6.045-1.032
			l3.233,18.941l7.43-1.269L72.828,61.4l6.045-1.032l7.611,44.589L80.439,105.989z"/>
		<path fill="#FFFFFF" d="M94.983,103.69l-6.218-44.804l15.059-2.09l0.753,5.429l-8.984,1.247l1.889,13.604l7.972-1.106l0.753,5.429
			l-7.972,1.106l2.07,14.914l8.984-1.247l0.753,5.429L94.983,103.69z"/>
		<path fill="#FFFFFF" d="M142.478,74.744c3.435,0.607,5.271,2.165,5.505,4.673l1.057,11.291c0.419,4.475-1.684,6.928-6.304,7.36
			l-12.274,1.149l-4.215-45.038l10.431-0.976c5.427-0.507,8.395,1.958,8.903,7.393l0.81,8.656c0.243,2.593-1.071,4.319-3.941,5.178
			L142.478,74.744z M134.13,72.614l2.862-0.268c2.331-0.218,3.396-1.414,3.192-3.589l-0.657-7.025
			c-0.203-2.174-1.217-3.176-3.04-3.006l-3.625,0.339L134.13,72.614z M136.056,93.188l4.579-0.428
			c1.61-0.151,2.355-0.875,2.234-2.171l-0.933-9.973c-0.2-2.133-1.508-3.086-3.925-2.86l-3.371,0.315L136.056,93.188z"/>
		<path fill="#FFFFFF" d="M157.641,96.827l-2.986-45.135l15.17-1.003l0.361,5.469l-9.051,0.599l0.907,13.704l8.03-0.532l0.362,5.469
			l-8.031,0.531l0.994,15.024l9.051-0.599l0.361,5.469L157.641,96.827z"/>
		<path fill="#FFFFFF" d="M190.535,61.9l-0.163-3.966c-0.073-1.804-1.004-2.67-2.791-2.597l-0.958,0.04
			c-1.745,0.071-2.579,1.01-2.505,2.814l0.308,7.491c0.034,0.84,0.227,1.399,0.58,1.679c0.352,0.28,0.921,0.635,1.706,1.065
			l5.935,2.846c1.306,0.662,2.231,1.18,2.78,1.557c0.548,0.378,0.982,0.843,1.304,1.397s0.515,1.629,0.58,3.223l0.396,9.631
			c0.208,5.078-2.155,7.719-7.091,7.921l-3.766,0.154c-4.894,0.201-7.453-2.468-7.681-8.008l-0.093-2.266l6.127-0.251l0.101,2.455
			c0.072,1.763,1.023,2.606,2.853,2.531l1.085-0.044c1.617-0.066,2.39-0.981,2.317-2.744l-0.315-7.679
			c-0.034-0.839-0.229-1.399-0.58-1.679c-0.354-0.279-0.921-0.634-1.706-1.065l-5.939-2.972c-1.305-0.618-2.253-1.147-2.847-1.585
			c-0.593-0.438-1.032-1.019-1.317-1.743c-0.286-0.724-0.453-1.673-0.501-2.849l-0.38-9.253c-0.212-5.162,2.129-7.843,7.021-8.044
			l3.83-0.157c4.892-0.201,7.445,2.28,7.657,7.441l0.181,4.406L190.535,61.9z"/>
		<path fill="#FFFFFF" d="M215.125,54.573l0.701,39.746l-6.131,0.109l-0.701-39.748l-5.876,0.104l-0.097-5.48l17.883-0.315
			l0.097,5.48L215.125,54.573z"/>
		<path fill="#FFFFFF" d="M259.946,83.949l-0.051,2.897c-0.089,5.124-2.582,7.643-7.478,7.558l-3.96-0.069
			c-4.896-0.084-7.301-2.688-7.211-7.812l0.518-29.857c0.089-5.123,2.581-7.643,7.479-7.557l3.959,0.068
			c4.896,0.085,7.301,2.689,7.212,7.813l-0.089,5.102l-6.131-0.106l0.081-4.661c0.03-1.764-0.87-2.662-2.701-2.693l-1.213-0.021
			c-1.619-0.028-2.442,0.84-2.473,2.604l-0.503,28.976c-0.031,1.764,0.762,2.66,2.381,2.688l1.532,0.026
			c1.618,0.028,2.442-0.84,2.474-2.604l0.042-2.457L259.946,83.949z"/>
		<path fill="#FFFFFF" d="M289.379,50.457l-1.627,36.63c-0.254,5.707-2.849,8.45-7.783,8.23l-5.169-0.229
			c-4.893-0.218-7.211-3.2-6.955-8.949l1.625-36.567l6.126,0.272l-1.634,36.756c-0.087,1.973,0.763,2.998,2.549,3.077l2.489,0.11
			c1.659,0.074,2.532-0.875,2.62-2.847l1.633-36.756L289.379,50.457z"/>
		<path fill="#FFFFFF" d="M299.298,51.05l11.977,0.88c4.671,0.344,6.818,3.091,6.439,8.244l-0.818,11.121
			c-0.289,3.938-1.683,6.341-4.181,7.209l2.887,19.1l-5.797-0.426l-2.674-18.516l-3.694-0.272l-1.34,18.221l-6.116-0.449
			L299.298,51.05z M303.815,73.239l4.013,0.295c1.826,0.134,2.819-0.887,2.979-3.065l0.717-9.739
			c0.16-2.178-0.674-3.334-2.499-3.469l-4.014-0.295L303.815,73.239z"/>
		<path fill="#FFFFFF" d="M328.698,98.865l-6.1-0.632l3.861-37.286c0.532-5.139,3.234-7.456,8.105-6.951l4.574,0.474
			c4.871,0.504,7.041,3.326,6.509,8.464l-3.861,37.286l-6.1-0.632l1.707-16.481l-6.989-0.724L328.698,98.865z M337.959,77.656
			l1.551-14.977c0.182-1.754-0.617-2.724-2.396-2.908l-1.652-0.171c-1.779-0.185-2.759,0.601-2.941,2.355l-1.551,14.977
			L337.959,77.656z"/>
		<path fill="#FFFFFF" d="M364.955,63.107l-5.214,39.409l-6.079-0.804l5.214-39.41l-5.826-0.771l0.719-5.434l17.731,2.346
			l-0.719,5.434L364.955,63.107z"/>
		<path fill="#FFFFFF" d="M371.929,104.241l7.119-44.671l15.013,2.393l-0.862,5.413l-8.957-1.427l-2.162,13.563l7.948,1.267
			l-0.862,5.413l-7.948-1.267l-2.37,14.87l8.957,1.428l-0.862,5.413L371.929,104.241z"/>
		<path fill="#FFFFFF" d="M394.095,107.866l8.473-44.434l10.479,1.998c5.647,1.077,7.928,4.461,6.842,10.155l-5.616,29.457
			c-0.818,4.292-3.633,5.979-8.443,5.061L394.095,107.866z M401.146,103.63l4.518,0.861c1.589,0.303,2.51-0.205,2.762-1.525
			l5.428-28.467c0.409-2.145-0.286-3.39-2.084-3.732l-4.204-0.802L401.146,103.63z"/>
	</g>
	<g>
		<path fill="#FFFFFF" d="M143.498,121.533v16.85c0,0.327-0.255,0.582-0.582,0.582h-1.165c-0.291,0-0.582-0.255-0.582-0.582v-7.278
			h-3.712v7.278c0,0.327-0.255,0.582-0.583,0.582h-1.164c-0.327,0-0.582-0.255-0.582-0.582v-16.85c0-0.327,0.255-0.583,0.582-0.583
			h1.164c0.328,0,0.583,0.256,0.583,0.583v7.242h3.712v-7.242c0-0.327,0.291-0.583,0.582-0.583h1.165
			C143.243,120.95,143.498,121.206,143.498,121.533z"/>
		<path fill="#FFFFFF" d="M154.562,121.533v5.35c0,1.929-1.273,3.53-3.021,4.039v7.461c0,0.291-0.291,0.582-0.582,0.582h-1.164
			c-0.328,0-0.583-0.291-0.583-0.582v-7.461c-1.783-0.509-3.057-2.11-3.057-4.039v-5.35c0-0.327,0.255-0.583,0.582-0.583h1.165
			c0.327,0,0.582,0.256,0.582,0.583v5.35c0,1.056,0.837,1.893,1.893,1.893c1.019,0,1.855-0.837,1.855-1.893v-5.35
			c0-0.327,0.255-0.583,0.583-0.583h1.164C154.308,120.95,154.562,121.206,154.562,121.533z"/>
		<path fill="#FFFFFF" d="M165.627,125.136v1.747c0,2.329-1.893,4.222-4.185,4.222h-1.893v7.278c0,0.291-0.255,0.582-0.583,0.582
			h-1.164c-0.291,0-0.582-0.291-0.582-0.582v-7.278v-2.329v-7.242c0-0.327,0.291-0.583,0.582-0.583h3.64
			C163.734,120.95,165.627,122.843,165.627,125.136z M163.298,125.136c0-1.02-0.837-1.855-1.855-1.855h-1.893v5.495h1.893
			c1.019,0,1.855-0.837,1.855-1.893V125.136z"/>
		<path fill="#FFFFFF" d="M170.214,123.28v5.495h3.166c0.327,0,0.582,0.254,0.582,0.582v1.164c0,0.328-0.255,0.583-0.582,0.583
			h-3.166v5.531h3.166c0.327,0,0.582,0.255,0.582,0.582v1.165c0,0.327-0.255,0.582-0.582,0.582h-4.331
			c-0.655,0-1.164-0.546-1.164-1.165v-15.685c0-0.655,0.509-1.165,1.164-1.165h4.331c0.327,0,0.582,0.256,0.582,0.583v1.165
			c0,0.326-0.255,0.582-0.582,0.582H170.214z"/>
		<path fill="#FFFFFF" d="M185.172,126.883c0,1.201-0.473,2.293-1.273,3.057c0.801,0.765,1.273,1.819,1.273,3.021v5.423
			c0,0.291-0.254,0.582-0.582,0.582h-1.164c-0.328,0-0.583-0.291-0.583-0.582v-5.423c0-1.019-0.837-1.855-1.855-1.855h-1.856v7.278
			c0,0.291-0.291,0.582-0.582,0.582h-1.164c-0.328,0-0.583-0.291-0.583-0.582v-16.268c0-0.655,0.51-1.165,1.165-1.165h3.021
			c2.329,0,4.185,1.893,4.185,4.186V126.883z M182.843,125.136c0-1.02-0.837-1.855-1.855-1.855h-1.856v5.495h1.856
			c1.019,0,1.855-0.837,1.855-1.893V125.136z"/>
		<path fill="#FFFFFF" d="M194.235,137.218v1.165c0,0.291-0.255,0.582-0.582,0.582h-4.295c-0.655,0-1.164-0.546-1.164-1.165v-16.267
			c0-0.327,0.255-0.583,0.582-0.583h1.164c0.292,0,0.583,0.256,0.583,0.583v15.103h3.13
			C193.98,136.636,194.235,136.891,194.235,137.218z"/>
		<path fill="#FFFFFF" d="M204.208,125.136v9.607c0,2.329-1.893,4.222-4.185,4.222c-2.329,0-4.222-1.893-4.222-4.222v-9.607
			c0-2.293,1.893-4.186,4.222-4.186C202.315,120.95,204.208,122.843,204.208,125.136z M201.879,125.136
			c0-1.02-0.837-1.855-1.855-1.855c-1.056,0-1.893,0.836-1.893,1.855v9.607c0,1.056,0.837,1.893,1.893,1.893
			c1.019,0,1.855-0.837,1.855-1.893V125.136z"/>
		<path fill="#FFFFFF" d="M213.271,126.373v-1.237c0-1.02-0.837-1.855-1.856-1.855c-1.019,0-1.855,0.836-1.855,1.855v9.644
			c0,1.02,0.837,1.856,1.855,1.856c1.02,0,1.856-0.837,1.856-1.856v-1.346c0-0.328,0.255-0.583,0.582-0.583h1.165
			c0.327,0,0.582,0.255,0.582,0.583v1.346c0,2.293-1.893,4.186-4.186,4.186c-2.329,0-4.185-1.893-4.185-4.186v-9.644
			c0-2.293,1.855-4.186,4.185-4.186c2.293,0,4.186,1.893,4.186,4.186v1.237c0,0.327-0.255,0.582-0.582,0.582h-1.165
			C213.526,126.955,213.271,126.7,213.271,126.373z"/>
		<path fill="#FFFFFF" d="M226.664,125.172v13.211c0,0.327-0.255,0.582-0.582,0.582h-1.165c-0.327,0-0.582-0.255-0.582-0.582v-7.242
			h-3.748v7.242c0,0.327-0.255,0.582-0.583,0.582h-1.164c-0.327,0-0.582-0.255-0.582-0.582v-13.211c0-2.292,1.893-4.185,4.222-4.185
			C224.771,120.987,226.664,122.88,226.664,125.172z M224.335,125.172c0-1.019-0.837-1.855-1.855-1.855
			c-1.056,0-1.893,0.837-1.893,1.855v3.64h3.748V125.172z"/>
		<path fill="#FFFFFF" d="M235.728,137.218v1.165c0,0.291-0.255,0.582-0.582,0.582h-4.295c-0.655,0-1.164-0.546-1.164-1.165v-16.267
			c0-0.327,0.255-0.583,0.582-0.583h1.164c0.292,0,0.583,0.256,0.583,0.583v15.103h3.13
			C235.473,136.636,235.728,136.891,235.728,137.218z"/>
		<path fill="#FFFFFF" d="M252.033,125.136v1.747c0,2.329-1.893,4.222-4.185,4.222h-1.893v7.278c0,0.291-0.255,0.582-0.583,0.582
			h-1.164c-0.291,0-0.582-0.291-0.582-0.582v-7.278v-2.329v-7.242c0-0.327,0.291-0.583,0.582-0.583h3.64
			C250.141,120.95,252.033,122.843,252.033,125.136z M249.704,125.136c0-1.02-0.837-1.855-1.855-1.855h-1.893v5.495h1.893
			c1.019,0,1.855-0.837,1.855-1.893V125.136z"/>
		<path fill="#FFFFFF" d="M262.479,126.883c0,1.201-0.473,2.293-1.273,3.057c0.801,0.765,1.273,1.819,1.273,3.021v5.423
			c0,0.291-0.254,0.582-0.582,0.582h-1.164c-0.328,0-0.583-0.291-0.583-0.582v-5.423c0-1.019-0.837-1.855-1.855-1.855h-1.856v7.278
			c0,0.291-0.291,0.582-0.582,0.582h-1.164c-0.328,0-0.583-0.291-0.583-0.582v-16.268c0-0.655,0.51-1.165,1.165-1.165h3.021
			c2.329,0,4.185,1.893,4.185,4.186V126.883z M260.149,125.136c0-1.02-0.837-1.855-1.855-1.855h-1.856v5.495h1.856
			c1.019,0,1.855-0.837,1.855-1.893V125.136z"/>
		<path fill="#FFFFFF" d="M273.908,125.136v9.607c0,2.329-1.893,4.222-4.185,4.222c-2.329,0-4.222-1.893-4.222-4.222v-9.607
			c0-2.293,1.893-4.186,4.222-4.186C272.016,120.95,273.908,122.843,273.908,125.136z M271.579,125.136
			c0-1.02-0.837-1.855-1.855-1.855c-1.056,0-1.893,0.836-1.893,1.855v9.607c0,1.056,0.837,1.893,1.893,1.893
			c1.019,0,1.855-0.837,1.855-1.893V125.136z"/>
		<path fill="#FFFFFF" d="M285.337,125.172v9.571c0,2.329-1.855,4.222-4.185,4.222h-3.058c-0.618,0-1.164-0.546-1.164-1.165v-15.685
			c0-0.655,0.546-1.165,1.164-1.165h3.058C283.481,120.95,285.337,122.843,285.337,125.172z M283.008,125.172
			c0-1.056-0.837-1.892-1.855-1.892h-1.893V136.6h1.893c1.019,0,1.855-0.837,1.855-1.856V125.172z"/>
		<path fill="#FFFFFF" d="M296.766,121.533v13.21c0,2.329-1.893,4.222-4.185,4.222c-2.329,0-4.222-1.893-4.222-4.222v-13.21
			c0-0.327,0.291-0.583,0.582-0.583h1.164c0.328,0,0.583,0.256,0.583,0.583v13.21c0,1.056,0.837,1.893,1.893,1.893
			c1.019,0,1.855-0.837,1.855-1.893v-13.21c0-0.327,0.255-0.583,0.582-0.583h1.165C296.511,120.95,296.766,121.206,296.766,121.533z
			"/>
		<path fill="#FFFFFF" d="M305.828,126.373v-1.237c0-1.02-0.837-1.855-1.856-1.855c-1.019,0-1.855,0.836-1.855,1.855v9.644
			c0,1.02,0.837,1.856,1.855,1.856c1.02,0,1.856-0.837,1.856-1.856v-1.346c0-0.328,0.255-0.583,0.582-0.583h1.165
			c0.327,0,0.582,0.255,0.582,0.583v1.346c0,2.293-1.893,4.186-4.186,4.186c-2.329,0-4.185-1.893-4.185-4.186v-9.644
			c0-2.293,1.855-4.186,4.185-4.186c2.293,0,4.186,1.893,4.186,4.186v1.237c0,0.327-0.255,0.582-0.582,0.582h-1.165
			C306.083,126.955,305.828,126.7,305.828,126.373z"/>
		<path fill="#FFFFFF" d="M316.128,121.533v1.165c0,0.326-0.254,0.582-0.582,0.582h-1.638v15.103c0,0.291-0.255,0.582-0.582,0.582
			h-1.165c-0.327,0-0.582-0.291-0.582-0.582V123.28h-1.638c-0.327,0-0.582-0.256-0.582-0.582v-1.165
			c0-0.327,0.255-0.583,0.582-0.583h5.604C315.874,120.95,316.128,121.206,316.128,121.533z"/>
		<path fill="#FFFFFF" d="M323.371,126.373v-1.237c0-1.02-0.837-1.855-1.855-1.855c-1.02,0-1.856,0.836-1.856,1.855
			c0,0.474,0,0.474,0.109,0.619l5.059,6.695c0.873,1.165,0.873,1.165,0.873,2.329c0,2.293-1.893,4.186-4.185,4.186
			c-2.293,0-4.186-1.893-4.186-4.186v-1.237c0-0.327,0.255-0.582,0.582-0.582h1.165c0.327,0,0.582,0.255,0.582,0.582v1.237
			c0,1.02,0.837,1.856,1.856,1.856c1.019,0,1.855-0.837,1.855-1.856c0-0.473,0-0.473-0.109-0.618l-5.059-6.696
			c-0.873-1.164-0.873-1.164-0.873-2.329c0-2.293,1.893-4.186,4.186-4.186c2.292,0,4.185,1.893,4.185,4.186v1.237
			c0,0.327-0.255,0.582-0.582,0.582h-1.165C323.626,126.955,323.371,126.7,323.371,126.373z"/>
	</g>
	<g>
		<path fill="#FFFFFF" d="M185.919,6.616c0.758-1.689,1.427-2.968,2.006-3.836c0.578-0.868,1.122-1.392,1.63-1.572
			c0.509-0.18,0.853-0.27,1.032-0.27s0.271,0.023,0.271,0.07s-0.103,0.121-0.306,0.223c-0.203,0.102-0.551,0.513-1.044,1.232
			c-0.492,0.719-1.114,1.822-1.864,3.308c-0.751,1.486-1.408,3.058-1.971,4.715c0.953,0,1.56-0.047,1.817-0.141
			c0.259-0.094,0.415-0.109,0.47-0.047s-0.02,0.164-0.223,0.305c-0.517,0.36-1.275,0.571-2.276,0.633
			c-0.016,0.032-0.141,0.407-0.375,1.126c-0.782,2.424-1.173,4.122-1.173,5.091c0,0.548,0.098,0.931,0.293,1.15
			c0.195,0.219,0.402,0.328,0.622,0.328c0.219,0,0.461-0.094,0.727-0.281c0.892-0.657,1.869-2.072,2.933-4.247
			c0.125-0.266,0.247-0.375,0.364-0.328c0.117,0.047,0.113,0.211-0.012,0.493c-0.579,1.235-1.06,2.143-1.443,2.721
			c-0.383,0.579-0.817,1.111-1.302,1.595c-0.642,0.61-1.282,0.915-1.924,0.915c-0.72,0-1.22-0.297-1.501-0.892
			c-0.142-0.281-0.212-0.54-0.212-0.774c0-0.235,0.004-0.481,0.012-0.739c0.008-0.258,0.035-0.594,0.082-1.009
			c0.048-0.414,0.161-0.93,0.341-1.548c0.18-0.618,0.32-1.087,0.422-1.408c0.102-0.32,0.254-0.754,0.458-1.302
			c0.203-0.547,0.313-0.845,0.328-0.892c-0.673,0-3.323-0.102-7.953-0.305c-0.954,2.847-2.455,5.396-4.504,7.648
			c-1.001,1.11-2.167,2.042-3.496,2.792c-1.783,0.985-3.659,1.478-5.63,1.478c-0.829,0-1.752-0.122-2.769-0.364
			c-1.017-0.243-1.979-0.704-2.886-1.384c-0.907-0.68-1.553-1.599-1.936-2.756s-0.395-2.44-0.035-3.848
			c0.188-0.719,0.606-1.392,1.255-2.018c0.649-0.625,1.186-0.946,1.607-0.961c0.156,0,0.25,0.02,0.281,0.059s0.02,0.086-0.035,0.141
			c-0.055,0.055-0.121,0.098-0.199,0.129c-0.469,0.204-0.954,0.649-1.454,1.337c-0.657,0.907-0.985,1.963-0.985,3.167
			c0,1.877,0.906,3.276,2.721,4.199c1.095,0.547,2.377,0.821,3.848,0.821c0.642,0,1.243-0.063,1.807-0.188
			c5.302-1.189,9.032-4.622,11.19-10.299c-0.407,0-0.802,0.09-1.185,0.27c-0.384,0.18-0.634,0.27-0.751,0.27
			s-0.184-0.047-0.199-0.141c0-0.266,0.188-0.52,0.563-0.762c0.376-0.243,0.704-0.379,0.985-0.411h0.915
			c1.001-2.502,2.143-5.036,3.426-7.601c-0.407,0.047-0.985,0.102-1.736,0.164s-1.36,0.117-1.83,0.164
			c-0.469,0.047-1.048,0.125-1.736,0.235s-1.259,0.239-1.712,0.387c-0.454,0.148-0.958,0.355-1.514,0.622
			c-0.555,0.266-1.021,0.571-1.396,0.915c-0.892,0.844-1.525,1.876-1.9,3.097c-0.156,0.5-0.234,1.032-0.234,1.595
			s0.203,1.111,0.609,1.642c0.407,0.532,0.946,0.798,1.619,0.798c1.329,0,2.275-0.766,2.839-2.299
			c0.266-0.719,0.398-1.224,0.398-1.513c0-0.289-0.051-0.508-0.152-0.657c-0.102-0.148-0.074-0.238,0.082-0.27
			c0.109-0.015,0.203,0.047,0.281,0.188c0.188,0.407,0.282,0.844,0.282,1.313s-0.157,0.978-0.47,1.525
			c-0.532,0.97-1.251,1.619-2.158,1.947c-0.438,0.157-0.876,0.235-1.313,0.235c-0.438,0-0.876-0.094-1.314-0.282
			c-0.829-0.359-1.438-0.97-1.829-1.83c-0.251-0.516-0.376-1.009-0.376-1.478c0-0.469,0.074-1.005,0.223-1.607
			c0.148-0.602,0.442-1.216,0.88-1.841s0.985-1.13,1.643-1.513s1.313-0.7,1.971-0.95c0.657-0.25,1.435-0.438,2.334-0.563
			s1.682-0.219,2.347-0.282c0.664-0.062,1.466-0.117,2.404-0.164s1.634-0.094,2.088-0.141c0.172-0.297,0.434-0.661,0.786-1.091
			c0.352-0.43,0.652-0.68,0.903-0.75c0.25-0.07,0.445-0.105,0.586-0.105c0.579,0,0.868,0.246,0.868,0.739s-0.32,0.903-0.962,1.232
			c-0.642,0.328-1.243,0.493-1.807,0.493c-0.422,0.813-1.021,2.264-1.794,4.352c-0.774,2.088-1.186,3.187-1.232,3.296
			c1.174,0,2.687,0.066,4.54,0.199c1.854,0.133,2.991,0.2,3.413,0.2C184.624,9.603,185.16,8.305,185.919,6.616z M180.98,0.727
			c-0.188,0-0.579,0.383-1.173,1.149c1.017-0.156,1.517-0.43,1.501-0.821c-0.016-0.172-0.102-0.273-0.258-0.305
			C181.035,0.735,181.012,0.727,180.98,0.727z"/>
		<path fill="#FFFFFF" d="M189.449,18.322c0.297,0,0.61-0.148,0.938-0.446c0.578-0.579,1.313-1.759,2.205-3.542
			c0.109-0.234,0.219-0.305,0.329-0.211c0.031,0.031,0.047,0.082,0.047,0.152s-0.063,0.243-0.188,0.516
			c-0.126,0.274-0.239,0.52-0.341,0.739c-0.102,0.219-0.297,0.575-0.586,1.068c-0.29,0.493-0.552,0.872-0.786,1.138
			c-0.642,0.735-1.248,1.103-1.818,1.103c-0.571,0-0.981-0.172-1.231-0.516c-0.251-0.344-0.376-0.727-0.376-1.149
			s0.102-0.884,0.306-1.384l1.501-3.824c0.031-0.094,0.047-0.219,0.047-0.375s-0.094-0.36-0.281-0.61l1.29-0.023
			c0.36,0,0.571,0.067,0.634,0.2s0.016,0.34-0.141,0.622l-1.877,4.387c-0.267,0.579-0.398,1.071-0.398,1.478
			C188.723,18.096,188.965,18.322,189.449,18.322z M191.749,9.712c-0.22,0.188-0.462,0.281-0.728,0.281
			c-0.267,0-0.478-0.094-0.634-0.281s-0.219-0.414-0.188-0.68c0.047-0.266,0.18-0.493,0.398-0.681
			c0.219-0.188,0.462-0.281,0.728-0.281s0.481,0.094,0.646,0.281c0.164,0.188,0.223,0.415,0.176,0.681S191.968,9.525,191.749,9.712z
			"/>
		<path fill="#FFFFFF" d="M190.998,26.252c-1.47,0-2.205-0.603-2.205-1.807c0-1.001,0.68-1.9,2.041-2.698
			c1.157-0.673,2.635-1.306,4.434-1.9c0.829-0.266,1.431-0.477,1.807-0.633c0.406-1.188,0.609-2.487,0.609-3.895
			c0-0.282-0.016-0.493-0.047-0.633c-0.438,0.892-1.04,1.806-1.806,2.745c-0.908,1.126-1.807,1.564-2.698,1.314
			c-0.813-0.344-1.22-1.017-1.22-2.018c0-1.345,0.672-2.823,2.018-4.434c0.734-0.875,1.595-1.431,2.58-1.666
			c0.266-0.078,0.531-0.117,0.798-0.117c0.704,0,1.392,0.234,2.064,0.704c0.25,0.204,0.375,0.375,0.375,0.516
			s-0.047,0.278-0.141,0.411s-0.191,0.149-0.293,0.047c-0.102-0.102-0.168-0.2-0.199-0.293c-0.204-0.578-0.532-0.868-0.985-0.868
			c-0.829,0-1.76,0.579-2.792,1.736c-0.579,0.657-1.079,1.361-1.501,2.111c-0.517,0.938-0.774,1.662-0.774,2.17
			c0,0.509,0.156,0.849,0.469,1.021c0.109,0.047,0.219,0.071,0.329,0.071c0.359,0,0.809-0.247,1.349-0.739
			c0.539-0.493,1.04-1.118,1.501-1.877c0.462-0.758,0.755-1.349,0.88-1.771s0.277-0.688,0.458-0.798
			c0.18-0.109,0.379-0.172,0.598-0.188s0.367-0.055,0.446-0.117c0.125,0.704,0.188,1.529,0.188,2.475s-0.164,2.021-0.493,3.226
			c0.72-0.516,1.232-0.977,1.537-1.384c0.305-0.406,0.547-0.774,0.728-1.103c0.18-0.329,0.34-0.653,0.48-0.974
			c0.141-0.32,0.234-0.528,0.281-0.622s0.125-0.152,0.235-0.176c0.109-0.023,0.164,0.027,0.164,0.152
			c0,0.079-0.023,0.172-0.07,0.281c-0.688,1.424-1.264,2.452-1.725,3.085c-0.462,0.633-1.091,1.138-1.889,1.513
			c-0.375,1.063-0.919,2.119-1.63,3.167c-0.712,1.047-1.607,1.971-2.687,2.768C193.133,25.853,192.062,26.252,190.998,26.252z
			 M189.285,24.891c0,0.594,0.384,0.892,1.149,0.892c0.454,0,0.966-0.133,1.537-0.399c0.57-0.266,1.044-0.54,1.419-0.821
			c0.642-0.516,1.345-1.282,2.111-2.299c0.579-0.813,1.024-1.604,1.338-2.37l-0.821,0.282c-2.44,0.844-4.161,1.595-5.161,2.252
			c-0.735,0.485-1.221,1.103-1.455,1.854C189.324,24.516,189.285,24.719,189.285,24.891z"/>
		<path fill="#FFFFFF" d="M205.988,17.783c0,0.438,0.156,0.657,0.47,0.657c0.735,0,1.774-1.376,3.12-4.129
			c0.109-0.219,0.207-0.305,0.293-0.258C209.957,14.1,210,14.162,210,14.24c0,0.079-0.09,0.301-0.27,0.668
			c-0.18,0.368-0.359,0.72-0.539,1.056c-0.181,0.336-0.442,0.778-0.786,1.326c-0.72,1.095-1.486,1.642-2.299,1.642
			c-0.532,0-0.954-0.219-1.268-0.657c-0.141-0.203-0.211-0.481-0.211-0.833c0-0.352,0.078-0.778,0.234-1.278s0.587-1.314,1.291-2.44
			c0.172-0.282,0.258-0.504,0.258-0.668c0-0.165-0.133-0.247-0.399-0.247c-0.266,0-0.773,0.352-1.524,1.056
			c-1.126,1.032-2.221,2.581-3.284,4.645c-0.11,0.235-0.399,0.352-0.868,0.352c-0.423,0.031-0.688,0.078-0.798,0.141
			c2.972-6.178,5.122-10.486,6.451-12.926c0.298-0.547,0.56-0.931,0.786-1.15c0.227-0.219,0.496-0.328,0.81-0.328
			c0.078,0,0.242,0.02,0.493,0.059c0.25,0.039,0.438,0.051,0.563,0.035c-0.469,0.485-1.31,1.826-2.521,4.023
			c-1.213,2.198-2.374,4.43-3.484,6.698c0.735-0.922,1.396-1.642,1.982-2.158c0.587-0.516,1.302-1.005,2.146-1.466
			c0.845-0.461,1.463-0.692,1.854-0.692c0.094,0,0.18,0.016,0.258,0.047C206.95,14.521,205.988,16.735,205.988,17.783z"/>
		<path fill="#FFFFFF" d="M224.381,26.205c-1.205-0.688-2.338-1.58-3.401-2.675c-0.454-0.454-0.884-0.876-1.291-1.267
			c-0.923-0.86-1.838-1.291-2.744-1.291c-0.329,0-0.661,0.105-0.997,0.317c-0.337,0.211-0.517,0.446-0.54,0.704
			c-0.023,0.258-0.09,0.379-0.199,0.364c-0.126,0-0.188-0.152-0.188-0.458s0.199-0.653,0.598-1.044
			c0.399-0.391,0.841-0.586,1.326-0.586c1.345,0,2.807,0.633,4.387,1.9c0.688,0.563,1.411,1.138,2.17,1.724s1.697,1.153,2.815,1.701
			s2.326,0.946,3.624,1.197c0.454,0.094,0.868,0.141,1.244,0.141c0.953,0,1.603-0.297,1.947-0.892
			c0.156-0.266,0.234-0.583,0.234-0.95s-0.173-0.801-0.517-1.302c-0.72-1.064-1.829-1.721-3.331-1.971
			c-0.25-0.032-0.375-0.125-0.375-0.282c0-0.141,0.102-0.196,0.305-0.164c1.83,0.297,3.159,0.993,3.988,2.088
			c0.391,0.547,0.586,1.028,0.586,1.443c0,0.414-0.094,0.786-0.281,1.114c-0.578,0.985-1.904,1.478-3.977,1.478
			S225.897,27.065,224.381,26.205z M225.858,4.105c-0.703,0-1.493,0.297-2.369,0.892c-1.157,0.797-2.189,1.853-3.097,3.167
			c-0.907,1.313-1.596,2.792-2.064,4.434c-0.281,0.954-0.422,1.783-0.422,2.487c0,1.814,0.5,3.144,1.501,3.988
			c0.625,0.516,1.313,0.774,2.064,0.774c1.563,0,3.12-0.586,4.669-1.759c1-0.767,1.868-1.626,2.604-2.581
			c1.611-2.126,2.417-4.402,2.417-6.827c0-1.658-0.431-3.128-1.291-4.411c-1.079-1.611-2.611-2.62-4.598-3.026
			c-0.61-0.141-1.212-0.211-1.807-0.211s-1.165,0.039-1.713,0.117c-1.799,0.234-3.081,1.009-3.847,2.323
			c-0.501,0.829-0.751,1.759-0.751,2.792c0,0.61,0.086,1.259,0.258,1.947c0.063,0.266,0.023,0.43-0.117,0.493
			s-0.29-0.055-0.446-0.352c-0.391-0.782-0.586-1.583-0.586-2.405c0-0.821,0.281-1.654,0.845-2.498
			c1.017-1.533,2.533-2.471,4.551-2.815c1.017-0.156,1.846-0.235,2.487-0.235c1.985,0,3.534,0.313,4.645,0.938
			c1.768,0.985,2.862,2.346,3.285,4.082c0.219,0.845,0.328,1.744,0.328,2.698s-0.161,1.943-0.481,2.968s-0.735,2.002-1.243,2.932
			c-0.508,0.931-1.153,1.818-1.936,2.663c-2.189,2.424-4.566,3.636-7.132,3.636c-1.095,0-2.025-0.282-2.792-0.845
			c-0.766-0.563-1.321-1.274-1.665-2.135c-0.376-0.954-0.563-1.892-0.563-2.815c0-0.922,0.102-1.783,0.306-2.581
			c0.202-0.797,0.504-1.626,0.902-2.487c0.399-0.86,0.872-1.634,1.42-2.322c0.547-0.688,1.134-1.322,1.76-1.9
			c1.157-1.079,2.463-1.673,3.917-1.783c0.095-0.016,0.18-0.024,0.259-0.024c0.547,0,1.079,0.149,1.595,0.446
			c0.109,0.063,0.168,0.125,0.176,0.188s-0.027,0.109-0.105,0.141c-0.078,0.032-0.195,0.023-0.352-0.023
			S226.108,4.105,225.858,4.105z"/>
		<path fill="#FFFFFF" d="M232.498,17.478c0-0.672,0.289-1.485,0.867-2.44c-0.25,0-0.32-0.125-0.211-0.375l0.423-0.821
			c0.531-1.017,0.969-1.877,1.313-2.581c0.156-0.329,0.461-0.493,0.915-0.493h1.431c-0.563,0.407-1.13,1.193-1.7,2.358
			c-0.571,1.165-1.014,2.08-1.326,2.745c-0.313,0.665-0.469,1.169-0.469,1.513c0,0.344,0.059,0.586,0.176,0.728
			c0.117,0.141,0.277,0.211,0.48,0.211c0.297,0,0.712-0.313,1.244-0.938c0.828-0.97,1.994-3.011,3.495-6.123
			c0.172-0.329,0.477-0.493,0.915-0.493h1.267c-0.344,0.266-0.613,0.54-0.81,0.821c-0.195,0.281-0.465,0.782-0.809,1.501
			c-0.938,1.876-1.463,3.12-1.572,3.73c-0.047,0.219-0.07,0.422-0.07,0.61c0,0.501,0.172,0.767,0.517,0.798
			c0.844,0,1.884-1.306,3.12-3.918c0.094-0.219,0.188-0.305,0.281-0.258c0.094,0.047,0.141,0.109,0.141,0.188
			c0,0.079-0.07,0.258-0.211,0.54s-0.278,0.555-0.411,0.821s-0.336,0.629-0.609,1.091c-0.274,0.461-0.528,0.825-0.763,1.091
			c-0.61,0.688-1.208,1.032-1.795,1.032c-0.586,0-0.989-0.258-1.208-0.774c-0.094-0.234-0.141-0.531-0.141-0.891
			s0.078-0.806,0.234-1.337c-1.142,2.002-2.197,3.003-3.167,3.003c-0.845,0-1.337-0.352-1.478-1.056
			C232.521,17.681,232.498,17.587,232.498,17.478z"/>
		<path fill="#FFFFFF" d="M247.63,14.393c-0.516,0.994-0.825,1.736-0.927,2.229s-0.152,0.891-0.152,1.196s0.117,0.458,0.352,0.458
			c0.298,0,0.665-0.273,1.104-0.821c0.641-0.797,1.274-1.837,1.899-3.12c0.063-0.141,0.133-0.219,0.212-0.234
			c0.125-0.047,0.188,0,0.188,0.141c0,0.079-0.023,0.172-0.07,0.281c-1.439,2.909-2.651,4.364-3.637,4.364
			c-0.454,0-0.821-0.219-1.103-0.657c-0.141-0.235-0.211-0.547-0.211-0.938c0-0.391,0.078-0.868,0.234-1.431
			c-1.251,2.018-2.33,3.026-3.237,3.026c-0.25,0-0.478-0.078-0.681-0.234c-0.469-0.329-0.703-0.892-0.703-1.689
			c0-1.533,0.664-3.088,1.994-4.668c0.75-0.875,1.673-1.446,2.768-1.712c0.297-0.078,0.579-0.118,0.845-0.118
			c0.72,0,1.329,0.25,1.83,0.751c0.156,0.172,0.203,0.336,0.141,0.493s-0.195,0.219-0.398,0.188
			c-0.173-0.563-0.548-0.844-1.126-0.844c-0.673,0-1.502,0.532-2.487,1.595c-0.563,0.625-1.087,1.36-1.571,2.205
			c-0.61,1.017-0.915,1.83-0.915,2.44s0.195,0.915,0.586,0.915c0.938,0,2.166-1.439,3.684-4.317
			c0.297-0.578,0.547-0.974,0.751-1.185c0.203-0.211,0.461-0.317,0.773-0.317c0.063,0,0.224,0.023,0.481,0.07
			s0.449,0.055,0.574,0.023C248.545,12.762,248.146,13.399,247.63,14.393z"/>
		<path fill="#FFFFFF" d="M250.984,14.956c-0.125,0.368-0.23,0.72-0.316,1.056c-0.086,0.337-0.129,0.673-0.129,1.009
			c0,0.337,0.078,0.649,0.234,0.938c0.156,0.29,0.406,0.434,0.751,0.434c0.563,0,1.11-0.379,1.643-1.138
			c0.531-0.758,1.094-1.725,1.688-2.897c0.125-0.219,0.242-0.305,0.353-0.258c0.078,0.063,0.094,0.145,0.047,0.246
			c-0.047,0.102-0.146,0.321-0.294,0.657c-0.148,0.337-0.258,0.571-0.328,0.704s-0.195,0.368-0.375,0.704
			c-0.181,0.336-0.337,0.586-0.47,0.751c-0.133,0.164-0.313,0.375-0.539,0.633c-0.228,0.258-0.442,0.45-0.646,0.575
			c-0.548,0.344-1.063,0.516-1.549,0.516c-0.484,0-0.86-0.105-1.126-0.317c-0.266-0.211-0.426-0.438-0.48-0.68
			c-0.055-0.242-0.082-0.458-0.082-0.645c0-0.188,0.008-0.43,0.023-0.728c0.047-0.5,0.145-0.985,0.293-1.454
			c0.148-0.469,0.23-0.735,0.246-0.798c0.36-1.298,0.872-2.713,1.537-4.246c0.664-1.533,1.228-2.687,1.689-3.46
			c0.461-0.774,0.824-1.302,1.091-1.583c0.531-0.563,1.056-0.845,1.571-0.845c0.359,0,0.603,0.258,0.728,0.774
			c0.016,0.094,0.023,0.211,0.023,0.352c0,0.532-0.188,1.205-0.563,2.018c-1.345,2.988-2.948,5.333-4.809,7.038
			C251.18,14.373,251.109,14.588,250.984,14.956z M253.753,10.486c0.782-1.235,1.356-2.287,1.725-3.155
			c0.367-0.868,0.551-1.458,0.551-1.771s-0.055-0.469-0.164-0.469c-0.156,0-0.453,0.309-0.892,0.927
			c-0.438,0.618-1.028,1.728-1.771,3.331c-0.743,1.604-1.35,3.007-1.818,4.211C252.182,12.747,252.971,11.722,253.753,10.486z"/>
		<path fill="#FFFFFF" d="M255.793,18.322c0.297,0,0.61-0.148,0.938-0.446c0.578-0.579,1.313-1.759,2.205-3.542
			c0.109-0.234,0.219-0.305,0.329-0.211c0.031,0.031,0.047,0.082,0.047,0.152s-0.063,0.243-0.188,0.516
			c-0.126,0.274-0.239,0.52-0.341,0.739c-0.102,0.219-0.297,0.575-0.586,1.068c-0.29,0.493-0.552,0.872-0.786,1.138
			c-0.642,0.735-1.248,1.103-1.818,1.103c-0.571,0-0.981-0.172-1.231-0.516c-0.251-0.344-0.376-0.727-0.376-1.149
			s0.102-0.884,0.306-1.384l1.501-3.824c0.031-0.094,0.047-0.219,0.047-0.375s-0.094-0.36-0.281-0.61l1.29-0.023
			c0.36,0,0.571,0.067,0.634,0.2s0.016,0.34-0.141,0.622l-1.877,4.387c-0.267,0.579-0.398,1.071-0.398,1.478
			C255.066,18.096,255.309,18.322,255.793,18.322z M258.093,9.712c-0.22,0.188-0.462,0.281-0.728,0.281
			c-0.267,0-0.478-0.094-0.634-0.281s-0.219-0.414-0.188-0.68c0.047-0.266,0.18-0.493,0.398-0.681
			c0.219-0.188,0.462-0.281,0.728-0.281s0.481,0.094,0.646,0.281c0.164,0.188,0.223,0.415,0.176,0.681S258.312,9.525,258.093,9.712z
			"/>
		<path fill="#FFFFFF" d="M258.374,16.961c0-1.298,0.625-3.472,1.877-6.522h-1.221c-0.078,0-0.129-0.042-0.152-0.129
			c-0.023-0.086-0.016-0.172,0.023-0.258s0.098-0.129,0.176-0.129h1.408c0.563-1.235,1.087-2.268,1.571-3.097
			c0.485-0.829,0.931-1.388,1.338-1.677c0.406-0.289,0.699-0.434,0.88-0.434c0.18,0,0.309,0.016,0.387,0.047
			c0.359,0.172,0.54,0.528,0.54,1.067s-0.181,1.193-0.54,1.959c-0.36,0.767-0.712,1.478-1.056,2.135h1.126
			c0.078,0,0.129,0.043,0.152,0.129s0.016,0.172-0.023,0.258c-0.039,0.086-0.098,0.129-0.176,0.129h-1.36
			c-0.86,1.455-1.9,2.745-3.12,3.871l-0.54,2.393c-0.047,0.203-0.07,0.403-0.07,0.598c0,0.196,0.055,0.395,0.164,0.598
			c0.109,0.204,0.281,0.305,0.517,0.305c0.266,0,0.563-0.094,0.892-0.282c0.75-0.563,1.579-1.744,2.486-3.542
			c0.063-0.141,0.137-0.227,0.223-0.258s0.137-0.012,0.152,0.059s-0.008,0.184-0.07,0.34c-0.516,1.08-0.923,1.846-1.22,2.299
			c-0.845,1.361-1.744,2.041-2.698,2.041c-0.484,0-0.884-0.18-1.196-0.54C258.53,17.963,258.374,17.509,258.374,16.961z
			 M262.784,10.439h-1.103c-0.188,0.438-0.61,1.478-1.267,3.121C261.26,12.684,262.049,11.644,262.784,10.439z M263.089,9.923
			c1.032-1.845,1.549-3.128,1.549-3.847c0-0.313-0.055-0.469-0.164-0.469c-0.173,0-0.435,0.25-0.786,0.75
			c-0.352,0.501-0.942,1.689-1.771,3.566H263.089z"/>
		<path fill="#FFFFFF" d="M260.415,26.252c-0.688,0-1.22-0.145-1.595-0.434c-0.376-0.29-0.563-0.638-0.563-1.044
			c0-0.407,0.117-0.868,0.352-1.384c0.407-0.798,1.143-1.439,2.206-1.924c0.797-0.375,1.853-0.724,3.167-1.044
			c1.313-0.321,2.158-0.536,2.533-0.645c0.563-0.985,1.235-2.745,2.018-5.279c-0.907,1.596-1.665,2.714-2.275,3.355
			c-0.61,0.642-1.229,0.962-1.854,0.962c-0.845,0-1.337-0.352-1.478-1.056c-0.063-0.109-0.079-0.273-0.047-0.493
			c0.03-0.219,0.05-0.375,0.059-0.469c0.007-0.094,0.059-0.247,0.152-0.458s0.156-0.364,0.188-0.458
			c0.172-0.359,0.32-0.641,0.445-0.845c-0.25,0-0.32-0.125-0.211-0.375l0.423-0.821c0.531-1.017,0.969-1.877,1.313-2.581
			c0.156-0.329,0.461-0.493,0.915-0.493h1.431c-0.031,0.032-0.109,0.094-0.234,0.188c-0.281,0.188-0.492,0.407-0.634,0.657
			c-0.563,0.97-1.267,2.354-2.111,4.152c-0.344,0.735-0.516,1.275-0.516,1.619c0,0.344,0.059,0.586,0.176,0.728
			c0.117,0.141,0.277,0.211,0.48,0.211c0.297,0,0.712-0.313,1.244-0.938c1.11-1.298,2.338-3.339,3.683-6.123
			c0.172-0.329,0.478-0.493,0.915-0.493h1.267c-0.406,0.282-0.727,0.638-0.961,1.067c-0.235,0.43-0.489,1.013-0.763,1.748
			c-0.274,0.735-0.618,1.712-1.032,2.932c-0.415,1.22-0.731,2.135-0.95,2.745c1.47-0.438,2.596-1.212,3.378-2.323
			c0.344-0.484,0.837-1.345,1.479-2.581c0.108-0.219,0.207-0.305,0.293-0.258s0.129,0.109,0.129,0.188
			c0,0.079-0.129,0.379-0.387,0.903c-0.259,0.524-0.521,1.009-0.786,1.455c-0.267,0.446-0.61,0.903-1.032,1.372
			c-0.423,0.469-0.892,0.841-1.408,1.115c-0.516,0.273-1.204,0.566-2.064,0.879c-1.204,2.189-2.416,3.801-3.636,4.833
			C262.98,25.783,261.745,26.252,260.415,26.252z M259.055,23.929c-0.172,0.344-0.258,0.661-0.258,0.95
			c0,0.289,0.109,0.512,0.328,0.668s0.492,0.235,0.821,0.235c0.907,0,1.877-0.466,2.909-1.396c1.032-0.931,1.938-1.928,2.721-2.991
			l0.517-0.868c-2.581,0.672-4.207,1.157-4.88,1.455C260.212,22.42,259.492,23.069,259.055,23.929z"/>
		<path fill="#FFFFFF" d="M285.61,9.501l1.571-0.047c0.657,0,1.095,0.141,1.314,0.422c0.108,0.125,0.164,0.25,0.164,0.375
			c0,0.125-0.039,0.234-0.117,0.329c-0.188,0.234-0.54,0.352-1.056,0.352c-0.892,0-1.682-0.344-2.37-1.032
			c-1.752,0.266-3.081,1.197-3.988,2.792c-0.578,1.032-0.868,2.041-0.868,3.026c0,0.547,0.086,1.087,0.259,1.619
			c0.516,1.501,1.634,2.252,3.354,2.252c1.532,0,2.862-0.516,3.988-1.548s1.689-2.056,1.689-3.073c0-0.484-0.208-0.887-0.622-1.208
			c-0.414-0.32-0.853-0.508-1.313-0.563c-0.462-0.055-0.853-0.082-1.173-0.082c-0.321,0-0.735,0.035-1.244,0.105
			c-0.508,0.07-1.013,0.278-1.513,0.622c-0.595,0.407-0.892,0.946-0.892,1.619c0,0.673,0.523,1.283,1.572,1.83
			c0.155,0.094,0.223,0.215,0.199,0.364s-0.091,0.191-0.199,0.129c-0.985-0.532-1.682-1.134-2.089-1.807
			c-0.281-0.438-0.422-0.805-0.422-1.103c0-0.297,0.039-0.54,0.117-0.727c0.188-0.547,0.657-1.009,1.408-1.384
			c0.75-0.375,1.704-0.563,2.861-0.563h4.153c0.813,0,1.813-0.273,3.002-0.821c0.579-0.266,1.001-0.578,1.268-0.938
			c0.125-0.188,0.188-0.387,0.188-0.598c0-0.211-0.047-0.395-0.141-0.551c-0.094-0.156-0.133-0.266-0.117-0.329
			c0.015-0.062,0.059-0.094,0.129-0.094s0.129,0.04,0.176,0.117c0.219,0.375,0.328,0.731,0.328,1.068s-0.102,0.645-0.305,0.926
			c-0.392,0.595-1.056,1.072-1.994,1.431c-0.938,0.36-1.908,0.54-2.909,0.54c-0.031,0-0.07,0-0.117,0
			c0.594,0.485,0.892,1.103,0.892,1.854c0,1.048-0.61,2.127-1.83,3.237c-0.579,0.548-1.321,0.993-2.229,1.337
			c-0.907,0.344-1.861,0.516-2.862,0.516c-2.425,0-4.137-0.704-5.138-2.111c-0.501-0.704-0.751-1.384-0.751-2.041
			s0.102-1.267,0.306-1.83c0.547-1.485,1.649-2.635,3.308-3.449c0.954-0.469,2.025-0.766,3.214-0.891
			c-0.438-0.61-0.653-1.376-0.646-2.299c0.008-0.922,0.411-1.791,1.209-2.604c0.797-0.813,1.716-1.404,2.756-1.771
			c1.04-0.367,2.053-0.551,3.038-0.551c0.813,0,1.506,0.165,2.076,0.493c0.571,0.329,0.856,0.853,0.856,1.572
			c0,0.454-0.141,0.856-0.422,1.208c-0.282,0.352-0.599,0.528-0.95,0.528c-0.353,0-0.634-0.105-0.845-0.317
			c-0.211-0.211-0.316-0.473-0.316-0.786s0.105-0.571,0.316-0.774c0.211-0.203,0.457-0.305,0.739-0.305
			c0.188,0,0.367,0.043,0.539,0.129s0.273,0.184,0.306,0.293c0.015-0.094,0.023-0.188,0.023-0.281c0-0.344-0.142-0.61-0.423-0.798
			c-0.297-0.219-0.743-0.328-1.337-0.328c-0.595,0-1.29,0.16-2.088,0.481c-0.798,0.32-1.549,0.786-2.252,1.396
			c-0.704,0.61-1.26,1.361-1.666,2.252c-0.22,0.5-0.328,0.946-0.328,1.337C285.399,8.836,285.47,9.188,285.61,9.501z
			 M288.261,10.229c0-0.282-0.578-0.422-1.735-0.422c-0.235,0-0.478,0.008-0.728,0.023c0.375,0.469,0.88,0.704,1.513,0.704
			C287.944,10.534,288.261,10.432,288.261,10.229z"/>
	</g>
	<g>
		<path fill="#FFFFFF" d="M197.596,159.589c0-0.638-0.292-1.238-0.875-1.804c-0.838-0.801-1.994-1.202-3.47-1.202
			c-1.294,0-2.724,0.283-4.29,0.848c-0.82,0.291-1.53,0.692-2.132,1.202c-0.929,0.802-1.394,1.603-1.394,2.404
			c0,1.075,0.684,2.04,2.05,2.896c0.51,0.31,1.534,0.815,3.074,1.517c1.539,0.701,2.664,1.271,3.374,1.708
			c1.075,0.655,1.817,1.357,2.228,2.104c0.409,0.747,0.614,1.439,0.614,2.077c0,0.911-0.3,1.84-0.901,2.787
			c-1.057,1.694-2.605,3.151-4.646,4.372c-2.35,1.421-5.183,2.131-8.498,2.131c-3.188,0-5.72-0.811-7.597-2.432
			c-1.457-1.238-2.186-2.832-2.186-4.782c0-1.238,0.451-2.604,1.353-4.099c0.901-1.493,2.009-2.55,3.32-3.17
			c0.273-0.109,0.478-0.146,0.614-0.109c0.137,0.037,0.022,0.21-0.341,0.52c-0.784,0.619-1.412,1.303-1.886,2.05
			c-1.021,1.603-1.53,3.343-1.53,5.219c0,1.239,0.346,2.322,1.038,3.252c1.239,1.657,3.389,2.596,6.449,2.814
			c0.346,0.036,0.86,0.055,1.544,0.055c0.683,0,1.611-0.123,2.787-0.369c1.175-0.246,2.309-0.651,3.401-1.216
			c2.351-1.238,3.871-2.842,4.563-4.81c0.219-0.583,0.328-1.147,0.328-1.694c0-1.238-0.556-2.331-1.667-3.278
			c-0.602-0.474-1.826-1.107-3.675-1.899c-1.85-0.792-3.093-1.397-3.73-1.817c-1.402-0.946-2.104-2.067-2.104-3.36
			c0-1.13,0.628-2.231,1.885-3.307c1.804-1.53,4.354-2.295,7.651-2.295c1.548,0,2.81,0.231,3.784,0.696s1.571,1.161,1.79,2.091
			c0.036,0.182,0.055,0.364,0.055,0.546c0,0.711-0.328,1.349-0.983,1.913c-0.456,0.364-1.066,0.655-1.831,0.874
			c-0.328,0.092-0.51,0.055-0.547-0.109c-0.036-0.236,0.191-0.382,0.684-0.437c0.874-0.109,1.411-0.547,1.612-1.312
			C197.568,159.963,197.596,159.771,197.596,159.589z"/>
		<path fill="#FFFFFF" d="M200.218,177.541c0.346,0,0.711-0.173,1.093-0.519c0.674-0.674,1.53-2.05,2.569-4.126
			c0.127-0.273,0.255-0.355,0.382-0.246c0.036,0.036,0.055,0.096,0.055,0.178s-0.072,0.282-0.219,0.601
			c-0.146,0.319-0.277,0.606-0.396,0.861c-0.119,0.255-0.347,0.669-0.684,1.243c-0.337,0.573-0.642,1.016-0.915,1.325
			c-0.747,0.856-1.453,1.284-2.118,1.284s-1.143-0.2-1.435-0.602c-0.291-0.4-0.437-0.847-0.437-1.339
			c0-0.491,0.118-1.028,0.354-1.612l1.749-4.453c0.036-0.109,0.055-0.255,0.055-0.438c0-0.182-0.109-0.419-0.328-0.711l1.503-0.027
			c0.419,0,0.665,0.078,0.738,0.232c0.072,0.155,0.018,0.396-0.164,0.725l-2.187,5.109c-0.31,0.675-0.464,1.248-0.464,1.722
			C199.371,177.277,199.653,177.541,200.218,177.541z M202.896,167.513c-0.255,0.219-0.537,0.328-0.847,0.328
			c-0.311,0-0.556-0.109-0.738-0.328c-0.182-0.218-0.255-0.482-0.218-0.792c0.055-0.31,0.209-0.574,0.464-0.792
			c0.255-0.219,0.537-0.328,0.848-0.328c0.31,0,0.56,0.109,0.751,0.328c0.191,0.218,0.26,0.482,0.205,0.792
			S203.15,167.295,202.896,167.513z"/>
		<path fill="#FFFFFF" d="M212.159,169.18c-2.24,3.936-3.361,6.504-3.361,7.706c0,0.474,0.174,0.71,0.52,0.71
			c0.929,0,2.177-1.575,3.743-4.727c0.109-0.255,0.219-0.355,0.328-0.301s0.164,0.128,0.164,0.219s-0.036,0.2-0.109,0.328
			c-0.966,1.949-1.78,3.292-2.445,4.03c-0.665,0.737-1.33,1.106-1.995,1.106s-1.17-0.255-1.517-0.766
			c-0.182-0.236-0.272-0.56-0.272-0.97s0.091-0.906,0.272-1.489c0.183-0.583,0.684-1.53,1.503-2.842
			c0.2-0.328,0.301-0.587,0.301-0.778s-0.155-0.287-0.465-0.287s-0.901,0.41-1.775,1.229c-1.312,1.202-2.578,3.006-3.799,5.41
			c-0.109,0.183-0.231,0.297-0.368,0.342s-0.406,0.077-0.807,0.096c-0.4,0.018-0.665,0.063-0.792,0.137
			c0.291-0.583,0.865-1.776,1.722-3.58c1.529-3.188,2.531-5.009,3.005-5.465c0.219-0.219,0.52-0.328,0.902-0.328
			c0.072,0,0.26,0.027,0.56,0.082c0.301,0.055,0.523,0.064,0.67,0.027c-0.674,0.365-1.776,2.077-3.307,5.138
			c0.856-1.057,1.635-1.899,2.337-2.527c0.701-0.629,1.544-1.212,2.527-1.749s1.703-0.807,2.158-0.807
			C211.968,169.125,212.068,169.144,212.159,169.18z"/>
		<path fill="#FFFFFF" d="M218.088,171.857c0.638-0.765,0.957-1.411,0.957-1.939s-0.219-0.793-0.656-0.793
			c-0.856,0-1.831,0.784-2.924,2.351c-0.346,0.491-0.683,1.139-1.011,1.939c-0.328,0.802-0.492,1.526-0.492,2.173
			s0.132,1.171,0.396,1.571c0.264,0.4,0.674,0.601,1.229,0.601s1.07-0.132,1.544-0.396c0.474-0.265,0.925-0.684,1.353-1.258
			c0.428-0.573,0.752-1.052,0.97-1.435c0.219-0.382,0.52-0.956,0.902-1.721c0.127-0.255,0.236-0.359,0.328-0.314
			c0.091,0.046,0.136,0.109,0.136,0.191s-0.122,0.382-0.368,0.901s-0.492,1.007-0.738,1.462c-0.246,0.456-0.597,0.966-1.052,1.53
			c-0.819,1.021-1.94,1.53-3.361,1.53c-1.021,0-1.753-0.25-2.199-0.752c-0.446-0.5-0.67-1.079-0.67-1.734
			c0-0.802,0.196-1.676,0.588-2.623s0.843-1.768,1.353-2.46c1.057-1.438,2.277-2.158,3.661-2.158c0.674,0,1.162,0.159,1.462,0.478
			c0.301,0.319,0.451,0.688,0.451,1.107c0,0.619-0.255,1.147-0.765,1.585c-0.256,0.236-0.47,0.354-0.643,0.354
			S218.216,171.985,218.088,171.857z"/>
		<path fill="#FFFFFF" d="M221.367,173.935c-0.255,0.619-0.383,1.312-0.383,2.076c0,0.511,0.114,0.916,0.342,1.217
			c0.228,0.3,0.551,0.45,0.97,0.45c1.658,0,3.161-1.558,4.509-4.672c0.128-0.292,0.282-0.419,0.465-0.383
			c0.072,0.019,0.109,0.063,0.109,0.137s-0.205,0.551-0.615,1.435c-0.409,0.884-0.824,1.599-1.243,2.145
			c-0.929,1.275-2.076,1.913-3.442,1.913c-0.729,0-1.349-0.236-1.858-0.711c-0.511-0.473-0.766-1.12-0.766-1.939
			c0-0.82,0.196-1.689,0.588-2.609s0.925-1.776,1.599-2.569c0.674-0.792,1.448-1.37,2.322-1.734c0.419-0.183,0.82-0.273,1.202-0.273
			c0.383,0,0.738,0.109,1.066,0.328c0.31,0.255,0.464,0.537,0.464,0.847c0,1.093-0.655,2.141-1.967,3.143
			c-0.401,0.31-0.966,0.587-1.694,0.833S221.75,173.935,221.367,173.935z M225.958,169.563c0-0.364-0.146-0.547-0.438-0.547
			c-0.51,0-1.284,0.629-2.322,1.886c-0.62,0.766-1.166,1.622-1.64,2.568c0.31,0,0.761-0.109,1.353-0.327
			c0.592-0.219,1.106-0.511,1.544-0.875C225.457,171.412,225.958,170.51,225.958,169.563z"/>
		<path fill="#FFFFFF" d="M244.457,167.868c-1.13,1.312-2.191,2.405-3.184,3.279c-0.993,0.874-1.699,1.489-2.118,1.845
			c-0.419,0.354-0.997,0.833-1.735,1.435c-0.737,0.601-1.125,0.92-1.161,0.956c2.077,1.038,3.334,1.558,3.771,1.558
			c0.437,0,0.883-0.154,1.339-0.465c0.455-0.31,0.838-0.638,1.147-0.983s0.501-0.528,0.574-0.547l0.19,0.164v0.109
			c-1.785,2.168-3.224,3.252-4.317,3.252c-0.382,0-0.934-0.155-1.652-0.465c-0.721-0.31-1.321-0.574-1.804-0.792
			c-0.483-0.219-0.752-0.337-0.807-0.355l-1.912,1.503l-0.355-0.219c0.018-0.091,0.446-0.597,1.284-1.517s1.303-1.397,1.394-1.435
			c0.273-0.036,0.474-0.027,0.602,0.027c5.684-5.064,8.525-8.652,8.525-10.766c0-0.802-0.456-1.203-1.366-1.203
			c-0.911,0-1.781,0.442-2.61,1.326s-1.443,1.854-1.844,2.909l-0.109,0.109h-0.328l-0.055-0.163c0.474-1.33,1.229-2.501,2.269-3.512
			c1.038-1.011,2.194-1.517,3.47-1.517c0.729,0,1.325,0.201,1.79,0.602s0.696,0.983,0.696,1.748
			C246.15,165.519,245.586,166.557,244.457,167.868z"/>
		<path fill="#FFFFFF" d="M259.539,165.354c0,1.093-0.264,2.382-0.792,3.866c-0.528,1.485-1.207,2.915-2.036,4.29
			c-0.829,1.376-1.84,2.541-3.033,3.498c-1.193,0.956-2.322,1.435-3.388,1.435s-1.854-0.342-2.364-1.024
			c-0.51-0.684-0.765-1.526-0.765-2.528c0-1.402,0.492-3.088,1.476-5.055c0.983-1.968,2.264-3.712,3.839-5.233
			c1.576-1.521,3.083-2.281,4.522-2.281C258.692,162.321,259.539,163.332,259.539,165.354z M254.143,175.301
			c1.303-1.73,2.354-3.62,3.156-5.67s1.202-3.693,1.202-4.933c0-1.238-0.492-1.857-1.476-1.857c-0.838,0-1.763,0.532-2.773,1.599
			c-1.011,1.065-1.908,2.313-2.691,3.743c-0.783,1.431-1.439,2.869-1.968,4.317s-0.792,2.564-0.792,3.348
			c0,1.366,0.556,2.049,1.667,2.049C251.615,177.896,252.84,177.031,254.143,175.301z"/>
		<path fill="#FFFFFF" d="M261.37,178.197l-0.246-0.055l-0.027-0.164c0.91-1.621,2.194-3.916,3.853-6.886
			c1.657-2.969,2.833-5.064,3.525-6.285c-1.476,1.33-2.961,2.45-4.454,3.361h-0.109l-0.109-0.219l0.055-0.164
			c2.423-1.84,3.989-3.143,4.7-3.907c0.71-0.765,1.22-1.166,1.53-1.202l0.847-0.082c0.018,0,0.036,0,0.055,0
			c0.018,0,0.055,0.01,0.109,0.027v0.137l-8.307,15.247C262.699,178.061,262.226,178.125,261.37,178.197z"/>
		<path fill="#FFFFFF" d="M281.837,167.868c-1.13,1.312-2.191,2.405-3.184,3.279c-0.993,0.874-1.699,1.489-2.118,1.845
			c-0.419,0.354-0.997,0.833-1.735,1.435c-0.737,0.601-1.125,0.92-1.161,0.956c2.077,1.038,3.334,1.558,3.771,1.558
			c0.437,0,0.883-0.154,1.339-0.465c0.455-0.31,0.838-0.638,1.147-0.983s0.501-0.528,0.574-0.547l0.19,0.164v0.109
			c-1.785,2.168-3.224,3.252-4.317,3.252c-0.382,0-0.934-0.155-1.652-0.465c-0.721-0.31-1.321-0.574-1.804-0.792
			c-0.483-0.219-0.752-0.337-0.807-0.355l-1.912,1.503l-0.355-0.219c0.018-0.091,0.446-0.597,1.284-1.517s1.303-1.397,1.394-1.435
			c0.273-0.036,0.474-0.027,0.602,0.027c5.684-5.064,8.525-8.652,8.525-10.766c0-0.802-0.456-1.203-1.366-1.203
			c-0.911,0-1.781,0.442-2.61,1.326s-1.443,1.854-1.844,2.909l-0.109,0.109h-0.328l-0.055-0.163c0.474-1.33,1.229-2.501,2.269-3.512
			c1.038-1.011,2.194-1.517,3.47-1.517c0.729,0,1.325,0.201,1.79,0.602s0.696,0.983,0.696,1.748
			C283.53,165.519,282.966,166.557,281.837,167.868z"/>
	</g>
	<g>
		<path fill-rule="evenodd" clip-rule="evenodd" fill="#FFFFFF" d="M356.902,125.046l1.798,3.263l3.66,0.702l-2.547,2.722
			l0.463,3.696l-3.374-1.583l-3.373,1.583l0.463-3.696l-2.548-2.722l3.659-0.702L356.902,125.046"/>
	</g>
	<g>
		<path fill-rule="evenodd" clip-rule="evenodd" fill="#FFFFFF" d="M103.752,125.046l1.8,3.263l3.659,0.702l-2.547,2.722l0.46,3.696
			l-3.372-1.583l-3.372,1.583l0.463-3.696l-2.547-2.722l3.659-0.702L103.752,125.046"/>
	</g>
	<path fill="#FFFFFF" d="M449.398,132.451c-0.492-1.636-1.146-3.25-1.746-4.744c-1.194-3.013-2.306-6.078-3.357-9.155
		c-4.107-12.018-5.631-20.773-5.631-27.149c0-6.374,0.706-11.424,2.472-17.634c2.37-8.348,5.322-15.281,6.517-18.292
		c0.601-1.494,1.254-3.108,1.746-4.745c0.509-1.642,0.906-3.335,1.146-5.081c0.232-1.745,0.304-3.552,0.09-5.373
		c-0.219-1.816-0.727-3.646-1.573-5.338c-0.84-1.692-2.019-3.224-3.393-4.489c-1.373-1.272-2.931-2.288-4.551-3.093
		c-1.625-0.804-3.315-1.414-5.035-1.841c-0.86-0.216-1.726-0.394-2.6-0.533c-0.221-0.035-0.438-0.065-0.651-0.096
		c-0.136-2.271-0.463-4.566-1.144-6.848c-0.865-2.923-2.453-5.873-4.901-8.049c-2.437-2.197-5.492-3.427-8.431-4.066
		c-2.966-0.646-5.899-0.789-8.77-0.762c-5.752,0.069-11.283,0.858-16.753,1.429c-5.493,0.586-10.994,1.102-16.503,1.554
		c-11.013,0.976-22.053,1.702-33.106,2.33c-11.055,0.614-25.917,1.088-37.008,1.433c11.073,0.792,25.974,1.014,37.079,1.021
		c11.104-0.004,22.209-0.351,33.309-0.943c5.548-0.332,11.091-0.729,16.632-1.195c5.563-0.428,11.038-1.174,16.383-1.192
		c2.665-0.008,5.302,0.16,7.755,0.716c2.45,0.55,4.678,1.539,6.385,3.066c1.722,1.51,2.916,3.599,3.643,5.965
		c0.729,2.368,1.026,4.965,1.087,7.593l0.048,2.032l2.104,0.136c5.777,0.376,12.273,2.659,14.876,7.656
		c1.322,2.459,1.684,5.456,1.424,8.479c-0.136,1.517-0.419,3.044-0.81,4.56c-0.387,1.528-0.896,2.988-1.452,4.566
		c-0.782,2.286-1.489,4.589-2.145,6.906c0.389-1.971,0.762-3.95,1.095-5.958c0.449-2.872,0.891-5.799,0.758-8.931
		c-0.085-1.561-0.359-3.179-0.907-4.71c-0.136-0.382-0.285-0.758-0.45-1.125l-0.274-0.581c-0.09-0.169-0.145-0.288-0.278-0.517
		c-0.458-0.802-0.987-1.457-1.597-2.07c-1.22-1.203-2.669-2.034-4.133-2.621c-1.475-0.575-2.978-0.917-4.471-1.138
		c-1.496-0.216-2.984-0.304-4.464-0.304c-1.063,0.004-2.104,0.043-3.159,0.141c0.068-1.253,0.071-2.483,0.029-3.732
		c-0.062-1.692-0.226-3.385-0.559-5.049c-0.334-1.662-0.806-3.309-1.537-4.841c-0.741-1.52-1.747-2.943-3.084-3.945
		c1.167,1.19,1.961,2.657,2.474,4.196c0.522,1.539,0.811,3.145,0.948,4.76c0.134,1.619,0.143,3.246,0.06,4.867
		c-0.089,1.61-0.269,3.26-0.557,4.797l-0.241,1.288l1.422-0.057c2.706-0.106,5.543,0.057,8.169,0.636
		c1.313,0.292,2.591,0.69,3.741,1.243c1.157,0.536,2.19,1.229,2.961,2.082c0.378,0.418,0.723,0.912,0.946,1.364
		c0.046,0.078,0.136,0.287,0.207,0.437l0.158,0.398c0.11,0.291,0.207,0.586,0.295,0.882c0.348,1.185,0.487,2.421,0.485,3.715
		c0.009,2.589-0.458,5.341-0.996,8.085c-1.093,5.505-2.52,11.034-3.602,16.777c-1.288,6.832-1.763,14.863-1.763,20.02
		c0,5.155,0.536,13.947,1.763,20.433c1.084,5.741,2.509,11.27,3.602,16.776c0.538,2.744,1.005,5.495,0.996,8.084
		c0.002,1.294-0.138,2.532-0.485,3.717c-0.088,0.296-0.185,0.591-0.295,0.883l-0.158,0.398c-0.071,0.148-0.161,0.357-0.207,0.437
		c-0.224,0.451-0.568,0.944-0.946,1.362c-0.771,0.853-1.804,1.548-2.961,2.083c-1.15,0.552-2.428,0.95-3.741,1.242
		c-2.626,0.579-5.463,0.742-8.169,0.635l-1.422-0.055l0.241,1.288c0.288,1.537,0.468,3.188,0.557,4.798
		c0.083,1.62,0.074,3.248-0.06,4.865c-0.138,1.616-0.426,3.223-0.948,4.762c-0.513,1.538-1.307,3.004-2.474,4.196
		c1.337-1.002,2.343-2.426,3.084-3.945c0.731-1.534,1.203-3.18,1.537-4.842c0.333-1.664,0.497-3.356,0.559-5.049
		c0.042-1.248,0.039-2.479-0.029-3.733c1.056,0.099,2.096,0.136,3.159,0.143c1.479,0,2.968-0.089,4.464-0.306
		c1.493-0.22,2.996-0.561,4.471-1.136c1.464-0.589,2.913-1.419,4.133-2.622c0.609-0.612,1.139-1.268,1.597-2.069
		c0.134-0.23,0.188-0.348,0.278-0.517l0.274-0.584c0.165-0.367,0.314-0.743,0.45-1.124c0.548-1.531,0.822-3.149,0.907-4.71
		c0.133-3.132-0.309-6.059-0.758-8.932c-0.333-2.006-0.706-3.984-1.095-5.957c0.655,2.318,1.362,4.622,2.145,6.907
		c0.557,1.578,1.065,3.036,1.452,4.566c0.391,1.515,0.674,3.042,0.81,4.558c0.26,3.024-0.102,6.02-1.424,8.479
		c-2.603,4.997-9.099,7.281-14.876,7.657l-2.104,0.136l-0.048,2.033c-0.061,2.628-0.357,5.224-1.087,7.591
		c-0.727,2.368-1.921,4.456-3.643,5.966c-1.707,1.527-3.935,2.518-6.385,3.068c-2.453,0.556-5.09,0.724-7.755,0.714
		c-5.345-0.017-10.819-0.765-16.383-1.193c-5.541-0.467-11.084-0.861-16.632-1.195c-11.1-0.592-22.204-0.938-33.309-0.94
		c-11.105,0.007-36.632,0.228-47.705,1.021c11.091,0.343,36.579,0.818,47.634,1.431c11.054,0.628,22.094,1.354,33.106,2.331
		c5.509,0.452,11.01,0.967,16.503,1.555c5.47,0.568,11.001,1.36,16.753,1.429c2.87,0.026,5.804-0.117,8.77-0.762
		c2.938-0.64,5.994-1.87,8.431-4.065c2.448-2.18,4.036-5.128,4.901-8.05c0.681-2.282,1.008-4.577,1.144-6.847
		c0.214-0.03,0.431-0.063,0.651-0.096c0.874-0.141,1.739-0.317,2.6-0.535c1.72-0.426,3.41-1.035,5.035-1.84
		c1.62-0.805,3.178-1.82,4.551-3.093c1.374-1.268,2.553-2.797,3.393-4.491c0.847-1.69,1.354-3.521,1.573-5.338
		c0.214-1.82,0.143-3.626-0.09-5.371C450.305,135.786,449.907,134.092,449.398,132.451z"/>
	<path fill="#FFFFFF" d="M1.362,132.451c0.493-1.636,1.148-3.25,1.748-4.744c1.193-3.013,2.304-6.078,3.355-9.155
		c4.108-12.018,5.632-20.773,5.632-27.149c0-6.374-0.706-11.424-2.472-17.634C7.254,65.421,4.304,58.488,3.11,55.477
		c-0.6-1.494-1.255-3.108-1.748-4.745c-0.508-1.642-0.906-3.335-1.145-5.081c-0.232-1.745-0.304-3.552-0.091-5.373
		c0.218-1.816,0.727-3.646,1.575-5.338c0.84-1.692,2.017-3.224,3.39-4.489c1.374-1.272,2.932-2.288,4.553-3.093
		c1.625-0.804,3.314-1.414,5.035-1.841c0.859-0.216,1.726-0.394,2.6-0.533c0.221-0.035,0.437-0.065,0.65-0.096
		c0.137-2.271,0.461-4.566,1.144-6.848c0.864-2.923,2.454-5.873,4.902-8.049c2.437-2.197,5.491-3.427,8.43-4.066
		c2.966-0.646,5.9-0.789,8.77-0.762c5.751,0.069,11.283,0.858,16.753,1.429c5.491,0.586,10.994,1.102,16.502,1.554
		c11.014,0.976,22.055,1.702,33.106,2.33c11.056,0.614,25.918,1.088,37.008,1.433c-11.072,0.792-25.974,1.014-37.075,1.021
		c-11.106-0.004-22.212-0.351-33.311-0.943c-5.547-0.332-11.094-0.729-16.632-1.195C51.961,10.364,46.487,9.618,41.144,9.6
		c-2.666-0.008-5.303,0.16-7.755,0.716c-2.452,0.55-4.679,1.539-6.386,3.066c-1.722,1.51-2.915,3.599-3.642,5.965
		c-0.729,2.368-1.026,4.965-1.088,7.593l-0.049,2.032l-2.103,0.136c-5.776,0.376-12.272,2.659-14.873,7.656
		c-1.326,2.459-1.686,5.456-1.426,8.479c0.135,1.517,0.416,3.044,0.809,4.56c0.387,1.528,0.896,2.988,1.452,4.566
		c0.783,2.286,1.49,4.589,2.145,6.906c-0.389-1.971-0.762-3.95-1.096-5.958c-0.448-2.872-0.889-5.799-0.755-8.931
		c0.084-1.561,0.357-3.179,0.903-4.71c0.136-0.382,0.288-0.758,0.452-1.125l0.273-0.581c0.092-0.169,0.146-0.288,0.28-0.517
		c0.458-0.802,0.986-1.457,1.597-2.07c1.22-1.203,2.671-2.034,4.133-2.621c1.475-0.575,2.978-0.917,4.47-1.138
		c1.495-0.216,2.984-0.304,4.464-0.304c1.064,0.004,2.102,0.043,3.16,0.141c-0.068-1.253-0.072-2.483-0.031-3.732
		c0.062-1.692,0.228-3.385,0.561-5.049c0.332-1.662,0.806-3.309,1.537-4.841c0.741-1.52,1.744-2.943,3.082-3.945
		c-1.165,1.19-1.959,2.657-2.473,4.196c-0.522,1.539-0.81,3.145-0.949,4.76c-0.132,1.619-0.142,3.246-0.06,4.867
		c0.09,1.61,0.27,3.26,0.559,4.797l0.241,1.288l-1.424-0.057c-2.705-0.106-5.542,0.057-8.169,0.636
		c-1.313,0.292-2.589,0.69-3.74,1.243c-1.155,0.536-2.189,1.229-2.961,2.082c-0.378,0.418-0.722,0.912-0.945,1.364
		c-0.047,0.078-0.137,0.287-0.207,0.437l-0.158,0.398c-0.109,0.291-0.208,0.586-0.297,0.882c-0.346,1.185-0.487,2.421-0.484,3.715
		c-0.01,2.589,0.459,5.341,0.996,8.085c1.094,5.505,2.52,11.034,3.603,16.777c1.288,6.832,1.76,14.863,1.76,20.02
		c0,5.155-0.535,13.947-1.76,20.433c-1.086,5.741-2.509,11.27-3.603,16.776c-0.537,2.744-1.006,5.495-0.996,8.084
		c-0.003,1.294,0.139,2.532,0.484,3.717c0.089,0.296,0.188,0.591,0.297,0.883l0.158,0.398c0.07,0.148,0.16,0.357,0.207,0.437
		c0.224,0.451,0.567,0.944,0.945,1.362c0.771,0.853,1.806,1.548,2.961,2.083c1.151,0.552,2.428,0.95,3.74,1.242
		c2.627,0.579,5.464,0.742,8.169,0.635l1.424-0.055l-0.241,1.288c-0.289,1.537-0.469,3.188-0.559,4.798
		c-0.082,1.62-0.072,3.248,0.06,4.865c0.14,1.616,0.427,3.223,0.949,4.762c0.514,1.538,1.308,3.004,2.473,4.196
		c-1.338-1.002-2.341-2.426-3.082-3.945c-0.731-1.534-1.205-3.18-1.537-4.842c-0.333-1.664-0.499-3.356-0.561-5.049
		c-0.041-1.248-0.037-2.479,0.031-3.733c-1.059,0.099-2.096,0.136-3.16,0.143c-1.479,0-2.969-0.089-4.464-0.306
		c-1.492-0.22-2.995-0.561-4.47-1.136c-1.462-0.589-2.913-1.419-4.133-2.622c-0.61-0.612-1.139-1.268-1.597-2.069
		c-0.135-0.23-0.188-0.348-0.28-0.517l-0.273-0.584c-0.164-0.367-0.316-0.743-0.452-1.124c-0.546-1.531-0.819-3.149-0.903-4.71
		c-0.134-3.132,0.307-6.059,0.755-8.932c0.334-2.006,0.707-3.984,1.096-5.957c-0.654,2.318-1.361,4.622-2.145,6.907
		c-0.556,1.578-1.065,3.036-1.452,4.566c-0.393,1.515-0.674,3.042-0.809,4.558c-0.26,3.024,0.1,6.02,1.426,8.479
		c2.601,4.997,9.097,7.281,14.873,7.657l2.103,0.136l0.049,2.033c0.062,2.628,0.358,5.224,1.088,7.591
		c0.727,2.368,1.92,4.456,3.642,5.966c1.707,1.527,3.934,2.518,6.386,3.068c2.452,0.556,5.089,0.724,7.755,0.714
		c5.344-0.017,10.817-0.765,16.383-1.193c5.538-0.467,11.085-0.861,16.632-1.195c11.099-0.592,22.204-0.938,33.311-0.94
		c11.102,0.007,36.629,0.228,47.702,1.021c-11.093,0.343-36.579,0.818-47.635,1.431c-11.052,0.628-22.093,1.354-33.106,2.331
		c-5.508,0.452-11.011,0.967-16.502,1.555c-5.47,0.568-11.002,1.36-16.753,1.429c-2.869,0.026-5.804-0.117-8.77-0.762
		c-2.938-0.64-5.993-1.87-8.43-4.065c-2.448-2.18-4.038-5.128-4.902-8.05c-0.683-2.282-1.007-4.577-1.144-6.847
		c-0.214-0.03-0.43-0.063-0.65-0.096c-0.874-0.141-1.74-0.317-2.6-0.535c-1.721-0.426-3.41-1.035-5.035-1.84
		c-1.621-0.805-3.179-1.82-4.553-3.093c-1.373-1.268-2.55-2.797-3.39-4.491c-0.849-1.69-1.357-3.521-1.575-5.338
		c-0.213-1.82-0.142-3.626,0.091-5.371C0.456,135.786,0.854,134.092,1.362,132.451z"/>
</g>
</svg>
